<svg width="18" height="16" viewBox="0 0 18 16" xmlns="http://www.w3.org/2000/svg">
<path d="M12.5 10.2903H11.71L11.43 10.0529C12.41 9.05056 13 7.74929 13 6.33372C13 3.17725 10.09 0.618671 6.5 0.618671C2.91 0.618671 0 3.17725 0 6.33372C0 9.49018 2.91 12.0488 6.5 12.0488C8.11 12.0488 9.59 11.53 10.73 10.6684L11 10.9145V11.6091L16 15.9965L17.49 14.6865L12.5 10.2903ZM6.5 10.2903C4.01 10.2903 2 8.52302 2 6.33372C2 4.14442 4.01 2.37715 6.5 2.37715C8.99 2.37715 11 4.14442 11 6.33372C11 8.52302 8.99 10.2903 6.5 10.2903Z" />
</svg>
